<svg xmlns="http://www.w3.org/2000/svg" viewBox="0 0 1760 1023"><g fill="#fff"><path d="M1631.19 39.44q-1.24.04-1.64-.24.96-1.38 1.68-.92.54.35-.04 1.16M1696.09 39.56q-.14.34-.73.71-.13-.11-.06-.41zM1698.53 47.35l-.31-.15.04-.22q.18.12.48.14a.05.05 0 0 1 .02.09q-.09.07-.23.14M1713.71 51.72q.41.34.15.28.01.05-.18.21-.08-.23.03-.49M1713.94 54.45l-.07-.93zM1665.72 58.55l-.28.43q-.24.02-.41-.04a.11.11 0 0 1-.03-.19q.11-.08.28-.11zM1669.72 62.21l.28 1.32q-.37 0-.54-.24-.14-.25-.12-.76.01-.29.38-.32M1587.87 81.68q.2.68-.25.91-.43.23-.72-.1l-.92-1.52q.36-.12.37-.9zM426.84 92.47v-1.26zM126.72 94.43q1.27.83 4.46.51-.62-.1-.97.32l-1.93.2q.01-.34-.53-.34-.38-.01-.54.28-.63-.34-.73-.91.49-.34.24-.06M121.22 95.76q-.88.64-1.96.56.54-.91 1.96-.56M1669.72 98.77q.01.35.32.49l-.55.23q.01-.4.23-.72M1636.87 106.69l.03-4.46zM1519.33 108.12l-1.09.02zM448.7 109.1l-.01 8.57zM1636.87 115.7l.03-4.47zM1591.44 113.47q-.62-.36-.47-.1l-.01-.96q.06.42.37-.41zM481.34 112.38l-.23.93q-.11-.1-.24-.07l.18-1.07q.28.48.29.21M467.48 113.87l-3.19.06zM448.79 119.02l-.09 3.65-.21-1.96-.05-1.7zM1297.81 125.27q-.42.82-1.49.97-.29-.27-.53-.32 1.05-.04 1.55-.71zM468.46 125.54q-.36.45-.93.47l.01-.17q.41-.29.92-.3M465.2 129.45l.51.18q-.78.32-1.51.13-.04-.46 1-.31M1666.45 140.16l-1.16-.02zM1661.5 143.21l-.19-2.71zM1696.14 145.79q-.06.64-.51.91.15.11.01-.19.05-.45.5-.72M522.45 151.06l.01.15q-.49.25-1.01.31-.02-.54 1-.46M443.53 159.19q-.46 0-.58-.22l.11-.23q.31.23.47.45M1558.8 162.79l.19.2-.95.23zM1664 163.54l.32.93q-1.86-.34-2.22.21-1.82.42-2.85-.19-6.82-1.08-13.41-.23-.25.04-.62.48l-.35-.2q.34-.71.35-1.12zM1360.79 164.87q-.41.66-1.15.39l-.1-.16q.54-.3 1.25-.23M1634.78 166.47q-.45.24-.79.19-.41-.05-.41-.45-.01-.28.25-.62.57-.35.85-.05.35.4.1.93M403.79 166.4l-1.32-.08q.67-.1 1.32.08M310.26 167.05l.39.49q-1.24.58-1.51 2.28-.17-.1-.31-.08.08-1.7 1.43-2.69M1578.79 167.87q-.16.12-.26.36l-.75-.24q.24-.22 1.01-.12M1343.82 171.45l-1.89-.82 4.7-.49a.42.41 31.8 0 1 .19.8q-1.38.51-3 .51M420.7 172.28l-1.74-.07.35-.42q.67-.09 1.39.49M1336.7 171.74l3.5.41q.57.01.73.23l-4.37-.49q.08-.37.14-.15M1337.98 174.65q-.32.06-.53.33l-.69-.19-.05-.26q.62-.09 1.27.12M336.4 177.53l.12.67-.43-.15.2-.59zM192.79 179.13q-8.34 3.19-17.24 4.62 8.51-3.36 17.24-4.62M584.1 182.97l-.07-.66a.27.27 0 0 0-.48-.13l-.27.37.14-2.9q1.11.84.68 3.32M160.33 184.87q.12.19.39.2l-3.43.45q1.46-.86 3.04-.65M420.03 185.54q.32.32-.22.46-.14-.25-.27-.36zM415.97 189.83q-.15.18-.17.3.05.5-1.15.12.28-.41 1.32-.42M311.74 192.22l-.18-.02q-.43-.77-.5-1.42.94.27.68 1.44M404.8 190.94l-1.35.26-.41-.26q1.05-.29 1.76 0M530.51 196.81q.64.51.13 1.17l-2.72-.09q1.04-1.2 2.59-1.08M521.88 197.54q.09.57-.61.63l-.06-.18zM500.04 199.96q-.48.05-.81-.12.41-.03.81.12M501.02 200.4q-.74.03-1.26-.14l.45-.21q.56-.24.81.35M142.28 200.21q-.29 1.2-1.79.93zM295.13 200.54q-.22.41-.63.39l.05-.17zM1267.36 200.98q-.01.27.09.56-.54.13-.64-.56.23.28.55 0M140.22 201.27q-1.2.87-2.54.89.48-.17.8-.46.82-.36 1.74-.43M62.79 202.83l.08.13q-.86.46-2.12.39.15-.04.16-.34zM71.13 202.76l-.05.16q-.72.11-1.33-.13.63-.16 1.38-.03M1693.71 203.2q.31.01.53.19l-.97.08q.19-.18.44-.27M202.47 203.54q-.25.46-.77.64l.09-.16q.25-.36.68-.48M1310.15 211.95l-.13-6.28q1.92 5.02.13 6.28M198.69 210.41l.34.08-1.56 1.53q-.21-.05-.42-.03.99-.63 1.64-1.58M67.22 212.94l-.93-.04zM841.21 212.82q-.33.29-.76.38-.22-.2-.4-.21.46-.18 1.16-.17M188.65 214.29q-.01.45-.36.71l-.25-.04zM108.7 215.58q-.44.55-1.46.55-.49-.33-1.53-.28 1.94.39 2.99-.27M317.88 216.05l.01 2.41zM1475.46 217.66l.08.22q-1.79.72-3.61.32.04-.12.02-.37zM829.77 218.78q-.53.5-1.3.68.41-.76 1.3-.68M824.37 219.51q-.1.32-.84.48.38-.41.84-.48M53.16 219.87q-2.37 2.47-5.08 3.71a1.24 1.15-55.1 0 1-.56.12l-7.95-.07h-.08q-1.48-.13-1.14-1.58l.54.05 3.17.52q1.58.6 4.72.31zM828.23 219.76q-.54.56-1.47.77-.06-.6 1.47-.77M1582.38 220.26q.1.67-.15.96h-.38q.09-.65.53-.96M822.63 220.49q-.06.16-.31.26l-.29-.18q.18.06.6-.08M60.95 222.93l-1.03-.43q-.11-.14.03-.46a.42.41 12 0 1 .38-.24l5.89.05a.28.27-86.3 0 1 .27.32l-.04.32a.2.2 0 0 1-.21.19zM824.55 221.98q-.28.56-.81.83-.34-.62.81-.83M811.5 222.27q-.3.64-.28 1.27-.58-.06-1.02-1 .51-.42 1.3-.27M905.2 223.04q-.65.12-1.24-.05.08-.21.25-.39.75-.19.99.44M823.74 222.81q-.18.38-.55.67-.09-.59.55-.67M1576.99 223.19l.41.08q-.15 1.51-1.48 1.8-.13-.19-.07-.52.83.11 1.14-1.36M908.21 224.82l-.05.43q-.24-.25-.65-.29l-.01-.5zM169.63 226.54q-.41.32-.93.45.35-.79.93-.45M1127.39 226.54l.05.5q-.32-.03-.48-.29zM1573.64 226.54l-.03.91zM42.78 228.48l-.44-.34q-1.54-.58-3.17-.2-.63.15-.85-.05-.18-.17-.2-.49a.42.4-8.4 0 1 .32-.42q4.03-.94 4.34 1.5M1336.28 227.37q-.41.59-.99.68.09-.71.99-.68M1055.7 227.46l.05 1.66q-.17.75-1.05.32l.09-2.02q.27.25.91.04M930.81 228.3l-1.52-.01-.34-.16q1.5-.38 1.86.17M196.88 230.46l.01-1.25zM1130.09 230.94q.13.66.39.83-.32.38-.94.27-.31-.43-.32-1zM756.97 232.37q.84-.09.69 1.21-.43-.36-1.19-.39.09-.53.5-.82M1038.78 232.62q.16.3.21.71-.35.75-1.01.53.17-.8.63-1.38zM812.9 234.53q-.01.36-.33.43l-.23-.21q.54-.08.56-.22M1030.86 236.19q-.39.27-.85.27-.43-.89.16-1.27.46-.3.69 1M1504.49 235.38q-4.53.98-4.15-.54zM1118.46 235.89l-.43.1q-.37-.2-.18-.2.21.1.61.1M492.15 236.2q.1.66.71.94-.08-.1-.16.28-.39 0-.6-.24-.32-.38-.13-.93zM811.88 239.46v-1zM941.93 238.98q.49.48.02 1.48l-1.01-.68q-.02-.28-.14-.5.46.04 1.13-.3M320.9 239.89h-1.36zM886.29 240.78l-.25-.1q.28-.1.5-.03a.04.04 0 0 1 .01.08q-.12.06-.26.05M714.76 240.89H710zM1038.64 243.05l.07.67-.2-.07q.13-.32.13-.6M1046.32 244.61l-3.38.17q1.69-1.03 3.38-.17M949.72 244.62l.19.19q-.56.83-1.38.97l-.04-.3zM1032.22 245.18l-2.37.11q.94-.91 2.37-.11M1016.63 250.55q-.42.31-.92.43l.03-.29a.3.3 0 0 1 .2-.2q.29-.06.69.06M1005.2 250.94q-.23-.21-.25.22-.14-.05-.19-.27.49-.11.44.05M1021.22 250.79q-.01.29-.15.42l-.29-.27zM1238.21 250.83v.32l-.42-.4zM387.78 252.21l-.06.23q-.74-.01-1.18.21-.02-.54-.1-.58.32-.75.88-.69.3.04.4.29t.06.54M1316.53 251.47l-3.2.48q-.74-.35-.51-.3 2.37-.67 3.71-.18M1307.04 251.72q-1.41-.14-3.01.27-.11-.2-.26-.31 1.86-.33 3.27.04M1229.21 253.96q-.18.56-1 .41l.27-.02a.21.21 0 0 0 .04-.41q-.21-.07-.48-.01.6-.18 1.17.03M879.46 255.54q-.95 1.76-2.55-.14 1.38-.25 2.55.14M845.96 256.04q-.49-.09-.76.25-.36-.18-.49-.5.72-.04 1.25.25M1295.3 255.98q-.19.36-1.03.06.45-.15 1.03-.06M847.43 256.29l-.21.5q-.41-.06-.72-.26l.04-.22zM1213.8 260.7q-.53 1.13-1.99 1.21-2.2-.91-1.91.05-1.19-.57-1.46-1.42zM1219.05 262.5l-.09.25q-.56.14-.78-.07.44-.18.87-.18M899.72 264.87q-.31.13-.41.3l-.69-.02q.17.11.07-.3.46-.12 1.03.02M907.56 265.15q-.08.5-.36.58-.48.13-.67-.4zM1081.87 266.71v-1.16zM312.56 266.24q-.26.3-.6.39.24-.34.6-.39M1109.88 269.55l-.87.47q-.08-.24-.23-.35zM312.2 272.97l.08 1q-.02 1.44-1.06 2.51l.02-5.22q.71.69.96 1.71M977.47 272.82l.24.29-.75.12q.19-.31.51-.41M336.21 273.86l-1.25.03q.66-.15 1.25-.03M478.45 273.74q-.16.3-.48.47-.55-.42-.45-.15.33-.31.93-.32M154.62 275.57q-.24.16-.37.72l-.38.43q-.07-1.25.75-1.15M855.96 276.61q-.13.75.08 1.59l-.33.67-.5.05-.43-.8.09-2.39zM367.56 278.28l-.37.15-1.47-.24q.32-.7 1.84.09M966.2 277.78q-.58.38-1.25.18l.09-.08zM943.97 278.32q-.08.05-.2.21-.22-.2-.27-.49.39.05.47.28M963.21 278.23l-.23.52q-.67.38-1.41.37.08-.16.03-.27.83-1 1.61-.62M153.12 279.45q-.16.45-.3.45-.11-1 .3-.45M943.14 280.79q.06.55-.05 1l-.12-.55q.15-.21.17-.45M1073.6 281.47v.58q-1.92.19-1.92 1.14-.38.1-1-.05.87-1 2.92-1.67M807.56 286.77q-.58.3-1.62.11.44-.5 1.62-.11M301.95 287.98q-.07.58-.43.32l.1-1.09q.02.49.33.77M820.78 287.87l-.09.42q-.45.1-.83-.01-.07-.17-.06-.49zM154.29 292.7q-.54.32-1.04-.43.68-.31 1.04.43M759.48 292.54l-3.9 1.44-.06-.33q1.38-.32 2.62-1.13.68-.18 1.34.02M828.89 295.43l-.03-3zM1197.26 292.56l-.56.39-1.98.03q-.4-.12-.76-.05 1.82-.55 3.3-.37M1192.79 292.87l-1.26.07q.46-.21 1.26-.07M1192.71 293.37l-1.25.02.04-.16zM69.23 294.14l-.95-.02zM143.75 294.21h.36q-1.25 1.2-2.88 1.95l-.03-.17zM1267.14 296.32l-.17.22-.1-.01-.02-1.55q.54.44.29 1.34M1345.26 295.83q.17.64-.99 1.14.19-.7.99-1.14M138.79 297.56l-.06.17q-.35.2-.73.26zM319.11 298.5q.07.19-.4.38.05-.29.22-.45.07.1.18.07M308.73 299.04l-.02.13-1.17-.12.25-.27q.32.45.94.26M312.29 299.08q-.9.36-1.75.13v-.13zM786.43 302.77l1.02-.05.43.19-6.67.87q1.04-.55 1.36-.96zM1129.8 303.25l1.38-.03q.92.5 2.29.33l-3.62 2q.46-.69-.99-1.15a.43.43 0 0 1-.01-.81zM780.3 303.71q-.69.24-1.54.22l-.04-.14q.84-.76 1.58-.08M808.21 303.94q-.4.02-.76.21-.16.12-.38.07a.1.1 5.1 0 1-.07-.08q-.07-.2.34-.32zM813.98 304.03l-.94-.12q.55-.13.94.12M811.21 304.11v.39q-.19-.09-.5-.04.16-.32.5-.35M1276.46 305.85v.36q-.64-.02-1-.39.5-.18 1 .03M1286.97 305.88l-1.92.03zM1279.79 309.28q-.38.03-.76-.07l.01-.18q.47-.02.75.25M758.96 309.31q.17.83-1.69.59zM723.04 309.97q-.12.33-.46.54.03-.33.46-.54M726.23 310.8q-.27.63-.98 1.19l-.25-.33zM1390.52 311.81q-.01.28.29.48l-5.02 3.05q-.43-.19-.38-.58l.37-.18q.17.85.98.18 1.83-1.53 3.76-2.95M751.04 314.09l.17.29-.75.01zM883.68 314.97q.36.89 1.57.83 3.1-.18 6.22.14-1.88-.2-2.29.31-1.34.3-2.62-.04-.52-.62-1.12-.02-1.73-.05-2.9-1.19zM893.22 316.53l-1.43-.15q.85-.12 1.43.15M741.78 320.95l.08.04q-.15.5-.58.96.04-.64.5-1M242.96 321.87q.43.29.43 1.13-.11.13-.13.26-.75-.85-.3-1.39M476.22 324.73q-.73.41-1.53.44l-.4-.17zM249.19 327.45q.15.6-.25 1.02l-.21.05q-.09-.96.46-1.07M124.88 329.46l.01-1.24zM1013.79 333.34l-.84.59-.25-.23q.26-.4 1.09-.36M1055.29 333.88h-1zM1342.29 337.66q-.71.29-1.36.17.1.26-.23-.12.88-.51 1.59-.05M288.8 337.78q.07.14.22.16.14.49-.9.44l-.13-.36q.41-.01.81-.24M162.76 338.31l-.03 1.1-.09 1.63-.26-2.73zM393.19 340.28l-.49-.18.09-.25q.32.03.4.43M1344.78 339.73q-.38.63-.76.3.35-.22.76-.3M331.27 341.14q-.28-.02-.5-.17l.01-.12q.35-.13.49.29M718.2 341.2q-.51.11-.91-.07.49-.08.91.07M368.79 342.87l-.09.39q-.69.37-.99.13.54-.38 1.08-.52M105.15 350.48q-.2.47-.87.79-.28-.56-.25-.27zM380.24 351.65q-1.05.28-1.92.1l-.01-.98q.56.04 1.03-.26zM856 358.03q-.11.6-.01 1.18l-.09.27q-.17-.77.1-1.45M441.72 358.71h-.19l-.18-.25.21-.17zM1703.71 358.74l-.25.44-1.01.09q.38-.53 1.26-.53M1035.96 359.05v.15q-.15.22-.48.05.22-.16.48-.2M442.57 361.24l-.13.23-.33-.51.23-.17zM1028.96 361.13q-.51.04-1 .25.36-.4 1-.25M1027.21 361.54q-.42.5-.91.63-.15-.02-.08-.38zM1602.27 367.04l-.06.67h-.35q.11-.38.41-.67M224.54 370.55q-.18.52-.74.02zM146.21 371.42q.63.18.56-.05-.32.36-1.05.34.19-.21.49-.29M124.29 371.88q-.14.34-.92.33l.15-.24zM705.59 376.98l-1.12-4.47q.44-.41.86-.27a.3.3 0 0 1 .22.31zM127.47 372.75l.32.08-.83.11q.17-.15.51-.19M875.28 373.72q-.22.21-.49.28l-.04-.14q.29-.21.53-.14M1596.69 375.54l-.02 1.17q-.11-.6.02-1.17M1224.11 379.22l-.02-1.67zM702.95 378.5v.21q-.25.25-.31.58-.18-1.09.31-.79M703.19 380.29q-.18-.52-.15-1.09.37.06.15 1.09M668.11 384.71q0 .44-.18.6l-.44.29q-.56-.52-.14-1.06.17-.23.4-.15.21.07.36.32M97.6 384.71l.05.26-.44.07-.25-.1zM1279.9 385.81l-.16.72-.28-.01.06-1.02q.2.09.38.31M648.21 386.36h-1.5zM620.08 386.75l-19.16 11.89q-.14.04-.26.05a.2.2 0 0 1-.24-.19q0-.16-.11-.35 9.32-5.83 18.8-11.43.63-.38.97.03M512.15 387.82l-.05.27q-.41-.24-.86-.13l-.2-.21q.42-.25 1.11.07M544.15 391.52q.05.36-.11.69h-.29q.03-.57.4-.69M1466.76 395.64q-.49 1.33-1.55 2.37l-.05-.26zM645.09 402.24l-.3.25q-.2-.97-.7-.71l-.02-.32q.91.16 1.02.78M884.04 403.81q-.19 1-.75 1.55-.45.08-.79-.03-.25-.08-.31-.31t.01-.47zM822.79 405.72q-.43.51-1.27.49l-.23-.31zM711.29 407.08q-.12.69-.75 1.04-.32-.11-.51-.28.29.13.72-.19.19-.13.02-.75-.12.15.52.18M295 408.03l.02 1.23q-.12.23-.13.53-.15-.97.11-1.76M806.29 409.64q.64.47 1.64.09.77-.23 1.12.08-.72.21-1.38.27-2.94.3-5.24-.52zM1662.47 409.88l.79.4-3.34 1.94zM294.89 413.71l-.02-1.49zM611.32 413.16q-.04-.23-.82-.25.05-.17 0-.31.89.2.82.56M931.05 412.77q-.22.2-.51.21l-2.09.69-.18-.2q1.18-.68 2.78-.7M751.49 415.56q-.67-.07-1.01-.71l.43-.35a.43.42 64.8 0 1 .68.25q.07.34-.1.81M622.3 418.16q-.52.6-1.76-.23v-.22zM915.26 421.5q-.12.37-.55.38zM1637.38 423.78q-1.68 2.27-4.85 3.4 2.11-2.46 4.85-3.4M1632.28 427.51q-7.86 5.76-17.03 9.42-1.86 1.02-2.91.76 9.36-4.61 18.42-9.88.84-.49 1.52-.3M738.45 429.07q.12.26.26.34l-1.49-.13q-.23-.63 1.23-.21M313.66 429.95q-.24.04-.46.16l-2.23-.06-1.15-.12zM656.43 430.1l.03-.03q-2.09.32-4.11-.05l-.09-.1q2.46-.44 4.17.18M302.49 435.08q.11.21.81.33-1.8.36-2.94-.17.96-.33 2.13-.16M178.21 450.94l-.27.35q-.53-.15-.72-.44.53-.07.99.09M316.21 451.79q.13.95-.48.99l.16-1.32q.1.2.32.33M1597.09 454.46q-.32.52-.58.48-1.04-.3-1.75 1.56.02-.41-.13-.52.75-1.43 2.46-1.52M281.86 455.66q-.02.69-.37 1.11-.29-.05-.49-.2t-.18-.45q.11-.98 1.04-.46M301.61 455.7q.13.1.39.11-.49.27-1.13.25l-.11-.27q.4.03.85-.09M294.99 461.57l-1.7.02zM591.55 467.95q-.45-.05-.59-.5.49.09.59.5M1177.75 478.5q.56.38.75.74.16.3-.03.49-.17.16-.52.2-3.2-1.41-4.45-1.41-7.64.01-8.41.05a.45.45 0 0 0-.43.45v8.83a.3.3 0 0 0 .29.29l12.88.03q1.82.37 3.86.06l5.18.11 8.62.7a.3.3 0 0 1 .28.34l-.02.3a.5.5 0 0 1-.53.46l-5.84-.35a.49.48-85.1 0 0-.51.44q-.08.97-.04 1.14a.33.32-31.2 0 1-.07.27q-.25.29-.59.13-.14-.06-.2-.23-.24-.63-.31-1.31a.6.59-2.6 0 0-.6-.54l-21.52.18a.7.7 3.4 0 0-.67.59l-.12.97a.4.4 0 0 1-.39.35q-.41.01-.62-.19-.16-.14-.15-.46.03-.71-.21-1.35.13-.8-.17-1.51.14-.02.32-.17a.4.39-19.6 0 0 .15-.31v-9a1.23 1.22-2.6 0 1 1.12-1.22q6.68-.55 12.95.93M590.15 480.53q-.06.55-.41.93.11-.54.41-.93M1335.77 484.54l-.48.42v-.17q.21-.17.48-.25M1552.23 485.8q-.69.33-.4.03-2.15.81-3.17.34.52.07.8-.25 1.33-.33 2.77-.12M582.01 486.8l-.66.46q.04-.22.19-.4zM875.98 568.29q.26.13 1.4-.86-.27 78.1-.76 156.14c-.1 15.49-.67 29.71-1.39 44.75q-.42 8.78-1.67 17.8-2.9 20.95-5.23 37.4-.03.21.01.39a.22.22 0 0 0 .43.01q.21-.74.48-1.45 37.52-96.58 75.09-193.15c1.68-4.32 4-8.99 5.89-13.56a3 3 0 0 0 .22-1.1l2.16-122.45q.54-.38 1.48-.24.48 39.95 1.06 79.91.1 7.14.43 14.76.28 6.75.56 14.74a.28.28 0 0 0 .55.06q.34-1.35.34-3.19c-.02-5.79-.39-11.96-.4-17.34-.05-18.78-.96-34.56-.03-51.45l1.09-22.31q.02-.44.78-7.77.41-3.91.02-7.81 1.55-.49 1.81.44-.75 31.79-1.53 63.58c-.27 10.85.28 21.74.6 32.63h.01q.35-3.39.37-3.79 1.89-43.69 3.69-87.39c.13-3.23.89-5.91 1.82-8.86a.59.58 42.2 0 1 1.1-.05l29.18 67.64a.5.5 0 0 0 .59.29l26.93-7.2a1.23 1.08-48.8 0 1 .3-.04l39.42-.77a.6.6 0 0 1 .57.43l.07.27a.57.57 81.9 0 1-.53.71l-39.08.81a2.28 2.17 35.1 0 0-.47.07l-26.78 7.05a.27.26 70.6 0 0-.17.36l54.88 127.22a.7.7 0 0 1-.38.94l-.27.11a.44.43 66 0 1-.58-.23l-54.9-127.26a.85.85 0 0 0-1.38-.27l-26.01 26.01a1.44 1.43 67.1 0 0-.42 1.04q.59 62.53.7 90.37.04 8.72 1.1 17.31l6.12 49.34q.96 7.66 2.9 15.16l7.91 30.52q1.73 6.69 4.4 13.06l17.47 41.47a2.41 2.15-78.6 0 0 .34.58l35.08 44.71a.56.43 79.4 0 0 .11.1l31.59 25.24a3.37 3.33-12.9 0 0 .79.49q22.93 10.58 37.65 17.41 11.8 5.47 23.91 9.99l117.73 43.91a.09.09 0 0 1-.02.18q-2.43.39-4.79-.49l-112.84-42.02q-12.26-4.57-24.16-10.07l-38.09-17.59a4.91 4.76-12.3 0 1-1-.62l-31.83-25.4a.39.18 25.1 0 0-.05-.06l-35.25-44.92a2.82 2.67-77.1 0 1-.39-.66l-17.44-41.31q-2.68-6.34-4.42-13.02-5.59-21.48-7.98-30.54-1.97-7.45-2.94-15.05-1.28-10.09-6.33-51.07-1.07-8.67-1.02-15.7.13-19.22-.38-38.47a.22.21 0 0 0-.22-.21h-.01a.13.12 90 0 0-.12.13q-.15 18.33-.27 39.73-.05 7.82 1.05 17.37 4.35 37.73 5.47 48.29.8 7.54 2.67 14.9 4.49 17.63 7.67 30.83 1.53 6.34 4.04 12.27 11.54 27.25 18.2 42.68a3.84 3.6 16.6 0 0 .5.86q19.22 25.16 32.07 42.17 3.26 4.32 7.26 7.92 15.3 13.78 25.96 23.34a15.99 15.77-9.1 0 0 2.97 2.12l115.84 64.29a.16.15-33.4 0 1-.06.29q-2.11.18-2.53-.05-57.31-31.87-114.69-63.62a4.46 4.26 78.8 0 1-.87-.61q-11.44-10.1-27.1-24.22-4.58-4.12-7.62-8.16-10.01-13.33-32.98-43.46a.1.1 0 0 0-.14-.02l-.01.01a.13.12 54.4 0 0-.02.18q11.36 15.39 27.61 37.71 6.99 9.6 16.25 20.38l24.22 28.1c3.12 3.62 5.93 7.4 8.82 11.22q1.73 2.28 3.19 4.72 11.27 18.79 22.42 37.42a.36.36 0 0 1-.36.54l-.76-.1a.66.64-11.2 0 1-.48-.31q-11.63-19.4-20.71-34.6a125 125 0 0 0-12.45-17.03q-15.8-18.4-23.92-27.7-8.65-9.93-16.27-20.36l-27.01-36.78a.2.2 0 0 0-.29-.05v.01a.2.19-36 0 0-.05.28l96.61 136.19a.3.3 58.7 0 1-.1.42q-.33.17-1.1-.05-.36-.11-.68-.55-48.98-69-97.91-138.01a4.81 4.23 19.5 0 1-.48-.86q-7.33-17.06-18.68-43.68-2.4-5.61-3.83-11.54l-7.72-32.05q-1.69-7-2.37-14.16-2.38-24.93-4.7-50.13-1.02-11.03-1.41-19.46-.45-9.75-.65-19.51-.04-2.07-.39-4.11-.03-.19-.17-.22a.1.1-84.8 0 0-.1.09q.01 14.45.18 31.86.15 14.98 1.02 31.74 1.08 20.84 2.44 46.32a2.36 2.17-59.3 0 0 .14.67l27.15 77.39a4.97 4.93 18.2 0 0 .64 1.25q55.46 79.85 59.83 86.23 9.8 14.28 20.53 27.84 3.9 4.92 23.85 30.38a.35.35 0 0 1-.26.57l-.44.02a1.36 1.35-19.6 0 1-1.11-.52q-18.8-24.14-23.12-29.47-9.12-11.25-21.45-29.16-3.92-5.7-59.28-85.43a2.86 2.74 19.3 0 1-.37-.73l-27.34-77.92a1.97 1.78-58.9 0 1-.12-.61q-.18-3.1-2.19-40.16-1.34-24.6-1.42-40.07c-.12-25.72.15-51.19-1.1-76.53a.09.09 0 0 0-.18-.03c-1.25 3.88-.6 8.59-.42 12.6q.24 5.1.04 8.99-8.73 171.41-17.52 342.82c-.25 4.83-.97 10.49-1.23 15.74a.44.43-88.6 0 1-.43.42l-.68.01a.4.4 0 0 1-.38-.4c.43-6.43 1.06-11.89 1.36-17.79q8.79-171.25 17.51-342.5c.17-3.43-.09-7.42-.31-10.12a.26.26 0 0 0-.52-.04l-2.54 10.68a6.73 6.4-38.3 0 0-.17 1.19l-21.35 358.62a.5.5.6 0 1-.46.44l-.35.01a.6.6 0 0 1-.61-.62l20.9-351.14a.1.1 0 0 0-.19-.04c-.69 2.2-1.12 4.5-1.96 6.58l-18.26 45.96q-9.01 22.72-17.41 46.25c-11.59 32.45-23.4 64.77-34.28 97.4-9.71 29.08-19.26 58.33-29.58 87.07q-7.42 20.66-14.92 41.47-2.22 6.16-5.39 11.98l-7.83 14.45a1.28 1.26 14.9 0 1-1.15.66H819a.48.47-75.5 0 1-.41-.7l8.16-15.09q3.25-6.03 5.59-12.53 8.66-24.04 14.76-41.05c10.2-28.48 19.7-57.55 29.34-86.41q7.58-22.74 15.55-45.03c15.37-42.98 23.31-66.7 36.48-99.55q5.05-12.62 17.52-44.03 1.2-3.04 2-6.17c.89-3.44 2.12-7.07 2.27-10.58q.11-2.71.05-3.9a.15.15 0 0 0-.28-.06q-1.96 3.49-2.97 6.08l-79.6 204.6a3.52 3.28-31.7 0 0-.22.8c-.28 1.84-.48 3.69-.97 5.47l-13.44 48.77q-2.73 9.92-6.4 19.49l-19.47 50.61q-2.57 6.66-6 12.75-4.53 8.06-9.13 16.08a.7.7 0 0 1-.63.36l-.6-.01a.34.34 0 0 1-.3-.51q5.23-9.35 9.48-16.61 2.93-4.99 5.79-12.45 17.91-46.65 19.25-50.04 4.2-10.63 6.49-19.53 1.2-4.65 11.97-43.53a.2.2 0 0 0-.12-.22l-.01-.01a.2.2-70.6 0 0-.25.13q-3.49 9.11-12.96 33.48c-9.74 25.07-20.85 50.51-31.17 74.66q-3.47 8.13-7.87 15.86l-10.45 18.38a.59.56 8.6 0 1-.4.28l-.84.14a.35.35 10 0 1-.36-.51q6.65-11.82 10.78-18.9 3.87-6.63 7.64-15.46c12.9-30.18 22.11-51.16 32.12-76.92q10.38-26.73 16.12-41.57a6.42 5.98-32.3 0 0 .36-1.37q3.06-21.6 6.06-43.34 1.51-10.96 2-22.01c.53-12.08 1.15-24.11 1.22-36.26zm91.71 13.96 25.02-25.01a.86.85 14.5 0 1 .38-.22q.34-.08.81-.33a.46.46 0 0 0 .21-.59l-27.13-62.89a.22.22 0 0 0-.43.09l.76 88.79a.22.22 0 0 0 .38.16m-3.17-42.68a.26.26 0 0 0-.26-.26h-.08a.26.26 0 0 0-.26.26l.16 45.92a.26.26 0 0 0 .26.26h.08a.26.26 0 0 0 .26-.26zM952.89 550q0 2.71.24 2.71.25 0 .24-2.71 0-2.71-.24-2.71t-.24 2.71m9.23 1.44c-.04 3.05-.25 5.88-.01 9.04q.3 3.93.05 7.86c-.48 7.58-.62 13.87-1.07 20.74a4.66 4.41 56 0 1-.15.9l-1.22 4.42a.23.22 65.6 0 0 .42.16l2.28-4.88a1.03 1.02 57.3 0 0 .09-.42l.12-37.84a.1.1 4.1 0 0-.08-.08l-.28-.03a.13.13 0 0 0-.15.13m-8.96 2.24q-.22-.01-.16.26.04.15.2.11a.19.19 0 0 0-.04-.37m.2 3.98a.1.1 0 0 0-.1-.11l-.46-.04a.1.1 0 0 0-.12.11l-.48 54.29a.11.11 0 0 0 .21.04l2.34-6.05.01-.04zm11.1 31.51a.27.27 0 0 0-.29-.26h-.06a.27.27 0 0 0-.26.28l1.14 36.14a.27.27 0 0 0 .28.26h.06a.27.27 0 0 0 .26-.28zm-4.75 9.71-.01.04 2.82 67.1a.1.1 0 0 0 .07.09l.19.07a.1.1 0 0 0 .13-.1l-.62-72.28a.1.1 0 0 0-.19-.04zm-6.65 14.56a2.74.39-77.6 0 0-.97 2.6 2.74.39-77.6 0 0-.2 2.76 2.74.39-77.6 0 0 .96-2.6 2.74.39-77.6 0 0 .2-2.76m14.31 105.69v-.33a.26.25-34.2 0 0-.49-.09q-.15.37-.01.58a.28.27-62.6 0 0 .5-.16m.9 7.34a1.43.21-78.4 0 0-.49 1.36 1.43.21-78.4 0 0-.08 1.44 1.43.21-78.4 0 0 .5-1.36 1.43.21-78.4 0 0 .08-1.44m-.7 7.3q.04-.3-.32-1.68a.1.1 0 0 0-.2.03q-.02 1.58.06 1.73a.25.25 0 0 0 .46-.08m1.63 1.21a2.03.21-82 0 0-.49 1.98 2.03.21-82 0 0-.07 2.04 2.03.21-82 0 0 .49-1.98 2.03.21-82 0 0 .07-2.04m-.94 6.47a1.02.19-93.3 0 0-.13 1.03 1.02.19-93.3 0 0 .25 1 1.02.19-93.3 0 0 .13-1.02 1.02.19-93.3 0 0-.25-1m1.9 3.3.05-.39a.02.02 0 0 0-.04-.01q-.08.23-.1.42a.05.04-48.7 0 0 .09-.02m-.27 1.08a3.17.23-86 0 0-.45 3.14 3.17.23-86 0 0 0 3.18 3.17.23-86 0 0 .46-3.14 3.17.23-86 0 0 0-3.18m1.58 5.41q-.02.16.05.24a.05.05 0 0 0 .09-.02q.04-.16.04-.27a.11.08-50.5 0 0-.18.05m.5 2.65q-.06.29.11.38a.1.1 0 0 0 .11-.06q.02-.23-.02-.34a.11.11-49.5 0 0-.2.02m-1.83 1.14.07.57a.23.23 0 0 0 .45.03q.16-.55-.11-.81a.24.24 0 0 0-.41.21m2.11.01q0 .16.05.3a.16.16 0 0 0 .31-.09q-.04-.15-.13-.28a.13.13 0 0 0-.23.07m.93 3.48q.33.86.21 2.04a.1.1 0 0 0 .15.1q.14-.08.07-.28.35-1.53-.19-2.02a.15.15 0 0 0-.24.16m-1.87.44-.07.59a.21.21 57.4 0 0 .4.09q.15-.5.09-.71a.22.21-49 0 0-.42.03m2.79 2.98q-.01.13.04.27t.18.17a.04.04 0 0 0 .05-.05q-.04-.21-.15-.41a.07.06 34.3 0 0-.12.02m-1.95 1.05q-.22 1.15.04 1.66a.21.21 0 0 0 .39-.07q.13-1.19-.06-1.63a.19.19 0 0 0-.37.04m2.28.61q-.18.95-.07 1.2a.23.23 0 0 0 .43-.11l-.05-1.07a.16.16 0 0 0-.31-.02m-.84 2.87a1.24.21-86.1 0 0-.29 1.23 1.24.21-86.1 0 0 .13 1.25 1.24.21-86.1 0 0 .29-1.23 1.24.21-86.1 0 0-.13-1.25m1.77 1.66q-.06.25.08.48a.17.17 0 0 0 .32-.08q.01-.2-.03-.39a.19.19 0 0 0-.37-.01m-.66 4.35q.05-1.63-.02-1.75a.29.29 0 0 0-.53.07q-.26.95.21 1.77a.19.18-59.3 0 0 .34-.09m4.02 8.96q.55-.13-2.25-10.05a.1.1 0 0 0-.11-.05l-.07.02.12-.03a.1.1 0 0 0-.07.09q1.99 10.11 2.38 10.02m-3.46-5.69q.06 1.05.14 1.17a.28.28 0 0 0 .51-.12q.07-.59-.31-1.16a.18.18 0 0 0-.34.11m1.61 4.98q.05-.25-.31-1.23a.2.2 0 0 0-.38.03q-.08.41.26 1.25a.23.22-51 0 0 .43-.05m2.13 1a2.6.25-102.9 0 0 .34 2.59 2.6.25-102.9 0 0 .82 2.47 2.6.25-102.9 0 0-.34-2.59 2.6.25-102.9 0 0-.82-2.47m-1.2 3.01q.08-1.12-.2-1.52a.28.27 32.3 0 0-.5.11q-.11.78.33 1.5a.2.2 0 0 0 .37-.09m.32 2.87.19 1.2a.15.15 0 0 0 .3 0q.12-.63.01-1.29t-.45-1.21a.15.15 0 0 0-.27.11zm2.33-.11a1.75.23-101.7 0 0 .12 1.76 1.75.23-101.7 0 0 .58 1.66 1.75.23-101.7 0 0-.12-1.76 1.75.23-101.7 0 0-.58-1.66m-.36 6.78-.29-2.62a.26.26 0 0 0-.51-.06q-.3.87.52 2.76a.15.15 0 0 0 .28-.08m2.02 1.35q.6 1.94 1.55 3.75a.22.18 79.2 0 0 .12.11q.04.01.07 0a.2.12 71.1 0 0 .05-.25q-.77-1.85-1.35-3.75-.58-1.89-.98-3.86a.2.12 74.8 0 0-.19-.17l-.06.04a.22.18 66.6 0 0-.04.16q.24 2.03.83 3.97m2.65 10.65q.45-.19-4.74-11.33a.1.09-27.5 0 0-.13-.03l.13-.06-.08.03a.1.09-17.8 0 0-.06.12q4.26 11.53 4.88 11.27m4.93 7.12q.72-.31-5.39-13.16a.1.1 0 0 0-.15-.04l-.1.04.16-.07a.1.1 0 0 0-.07.14q5.04 13.31 5.55 13.09m-4.46-6.07a1.99.24-111.5 0 0 .5 1.94 1.99.24-111.5 0 0 .96 1.76 1.99.24-111.5 0 0-.5-1.94 1.99.24-111.5 0 0-.96-1.76m1.72 4.24a3.64.24-112.9 0 0 1.2 3.44 3.64.24-112.9 0 0 1.64 3.26 3.64.24-112.9 0 0-1.2-3.44 3.64.24-112.9 0 0-1.64-3.26m3.31 3.06q-.02.5.06.7a.31.31 0 0 0 .58-.04q.14-.51-.19-.83a.26.26 0 0 0-.45.17m.85 1.75a4.94.19-113 0 0 1.76 4.62 4.94.19-113 0 0 2.1 4.48 4.94.19-113 0 0-1.76-4.62 4.94.19-113 0 0-2.1-4.48m.96 7.08q-.12.81.22 1.21a.24.24 0 0 0 .42-.19q-.09-.63-.64-1.02l-1.74-4.5a.07.07 0 0 0-.14.04q.4 2.39 1.88 4.46m.82 2.55q.16 1.1.46 1.35a.28.28 0 0 0 .45-.26q-.1-.72-.56-1.25a.2.2 0 0 0-.35.16m2.46.47v.73a.25.25 0 0 0 .5.05q.04-.2-.11-.82a.2.2 0 0 0-.39.04m-1.55 1.4q-.44.19 4.85 11.14a.1.1 0 0 0 .13.04l-.14.06.09-.04a.1.1 0 0 0 .06-.12q-4.38-11.35-4.99-11.08m2.89 1.37q.02-.14 0-.26a.17.17 0 0 0-.34.04q.02.14.1.27a.13.13 0 0 0 .24-.05m.23.78a1.33.15-113.5 0 0 .4 1.28 1.33.15-113.5 0 0 .66 1.16 1.33.15-113.5 0 0-.4-1.28 1.33.15-113.5 0 0-.66-1.16m1.73 3.68a1.2.21-106.1 0 0 .13 1.2 1.2.21-106.1 0 0 .53 1.1 1.2.21-106.1 0 0-.13-1.2 1.2.21-106.1 0 0-.53-1.1m.98 3.47q.02.1.29.36a.21.21 0 0 0 .36-.13q.01-.07-.13-.38a.27.27 0 0 0-.52.15m.72 1.83a.24.24 0 0 0 .47-.01q.03-.21-.02-.37a.22.22 0 0 0-.42 0q-.06.19-.03.38m-1.45.47a2.45.25-112.4 0 0 .7 2.37 2.45.25-112.4 0 0 1.16 2.17 2.45.25-112.4 0 0-.7-2.37 2.45.25-112.4 0 0-1.16-2.17m2.61 1.14q-.08.29.07.39a.08.08 0 0 0 .12-.06q.02-.22-.01-.33a.09.09 0 0 0-.18 0m1.14 2.7q.02-.15-.01-.26a.13.12 35.6 0 0-.25.03q.03.14.16.26a.06.06 0 0 0 .1-.03m-1.8.95a2.01.23-121.6 0 0 .85 1.83 2.01.23-121.6 0 0 1.25 1.6 2.01.23-121.6 0 0-.85-1.84 2.01.23-121.6 0 0-1.25-1.6M1149.69 488.12l1.61.03h7.31q-.15.85-.03 1.51-6.38.93-11.66-1.48zM235.29 489.45l-.24.17q-.38-.2-.76-.22.63-.26 1 .05M1492.49 498.87q-.34.24-.87.14-.27-.82-.04-1.5a.36.36 0 0 1 .63-.11q.36.46.28 1.47M782.46 497.88H781zM267.9 499.45l-.01-.97zM399.88 498.79q.19.01.28.14a.1.1 0 0 1-.07.16q-.28.01-.33-.17a.1.1 0 0 1 .12-.13M1180.86 499.94q1.44 1.14 1.56.13.5 0 .82.11.42.15.49.61.11.76-.91.99l-.3-.38a.57.57 0 0 0-.83-.05l-.37.34-2.03-.35a.58.58 0 0 1 0-1.14zM1496.43 499.98l.28.1-.75.19q.21-.18.47-.29M338.73 502.23l-1.94-.1zM191.83 502.71q-.28.26-.53.28l-.31-.07q.39-.17.84-.21M1440.69 514.76l-5.35.33-.08-.21zM236.44 519.95q-.3.35-.18.6-.86-1.42-.53-2.59.67.58.71 1.99M766.16 519.05l-.33-.1-.04-.19q.12-.37.37.29M267.71 528.54q-.37.2-.6.48l-.37-.44q.47.09.97-.04M587.07 534.05q-.21 1.18-.86 1.17l-.2-.32q.92-.14.7-.86zM654.22 536.36l-.95 3.38-.16-.78-.02-.15.1-.52q-.43-3.6 1.03-1.93M510.02 546.5q-.47-.16-.32-1.54.41-.04.32 1.54M579.88 545.54l-.03.93zM560.29 547.11l-1.5.02zM764.94 547.78q.19.17.18.52-.27-.5-.47-.38zM521.46 548.87l.01.32q-.46-.05-.75-.37.37-.05.74.05M1447.48 554.93l.48.07-.02.28q-.82-.06-.46-.35M674.04 555.49q.13.59 0 1.16c-.89-.09-.84-1.01 0-1.16M680.18 555.79l-.07.52q-.09-.19-.24-.28.07-.19.31-.24M1451.46 555.68q-.05.49.06.5-.63.08-1.04-.39zM674.24 557.79q-.11.5-.01 1.01l-.52-.12.25-.67zM770.87 558.25q.09.66-.05 1.25zM770.38 559.54l-.02-1.03zM770.64 560.04l.07 1.42-.3-.1q-.06-.71.12-1.32zM281.29 561.13l-.08.39-.74-.03q-.07-.43.82-.36M283.78 561.18q-.36.34-.99.22-.02-.35-.8-.25 1.13-.24 1.79.03M530.87 565.46v-.99zM372.83 567.78l-.2 7.42q-.38.12-.85.09l-.06-7.35.44-.77a.31.3-64.4 0 1 .36-.13q.37.14.31.74M520.47 567.01l.01.18-1.55.06q.23-.63 1.54-.24M383.58 567.94v3.46a.57.57 0 0 0 .56.57l2.86.06q-.42.65-.19 1.03-2.15-.44-3.45.51l-.7.27-.22-6.03q-.22-.3.56-.31.45 0 .58.44M498.71 567.48q-1.73.85-3.41.86l-.02-.32zM478.99 568.02l-.03.25q-.75.18-1.41-.03l-.01-.27q.49-.15 1.45.05"/><path d="m479.96 567.92-.97.1q.44-.23.97-.1M483.29 568.25l-1.25.12q.32-.1.49-.38.27-.36.76.26M484.98 567.96q-.56-.07-.78.25.11-.57.78-.25M489.76 567.96l-.72-.03q.32-.12.72.03M508.55 567.74q-.36.23-1 .18zM492.46 568.01v.28q-1.29.19-2.49-.05l.02-.19zM672.61 569.05l-1.51-.31q.36.08.14-.79.86.02 1.37 1.1M568.64 568.21l-.11.3-.74-.05q.4-.22.85-.25M367.44 568.53l.03 8.44q-.04-.26-.79-.13l-.02-8.3q.44.15.78-.01M441.22 573.1q.13.14.26.5l-1.22-.49zM674.01 574.02q.75-.04.85.48.1.57-.83.78-.42-.04-.67-.3l-.31-.57zM451.78 576.73l-.08.49q-.3-.26-.74-.32l-.01-.28q-.04.24.83.11M567.19 577.71l.12.28-1.32.62-.03-.26q.41-.91 1.23-.64M214.96 579.27l.28-.1q-.11.5-.47.8.04-.39.19-.7M1188.52 580.82q-.16.41-.08.87-.94.06-1.38-.26a.37.36-35.5 0 1 .11-.64q.54-.18 1.35.03M557.74 581.3q-.38.34-1.07.21-.08-.48 1.07-.21M543.51 582.26q-.51.26-1.3.09.65-.2 1.3-.09M781.65 582.79q-.04.76.18 1.54-.22.3-.44.38.34-.74.26-1.92M529.43 584.39q1.66.64-.51.29.3-.03.51-.29M528.38 585.54q-.14.23-.39.43l.05-.35zM1488.43 586.13l-7.67.03zM206.94 586.28q-.13.31.55.27-.64.24-1.29.22zM681.21 587.52l-.42-.25.22-.14q.15.07.2.39M686.46 588.14q-.65-.27-.68-.76.52-.12.85.04.31.14.21.4-.07.19-.38.32M194.71 587.64l-1.16.39-.01-.21q.53-.26 1.17-.18M135.88 590.04l-.01.92zM162.22 592.53l.11.79q-.27.43-.83.41-.45-.02-.37-.45l.04-.54zM1554.96 592.9l-3.92-.02zM1207.96 595.63l-.99-.28q.32.02.58-.28.33.25.41.56M1294.32 596.01q-.37.47-1.78.28-.05-.35-.19-.46zM1208.96 596.29q.15.13.29.11l-.72.03q.19-.12.43-.14M1218.46 596.3l-.98.22q0-.42.98-.22M1216.97 596.75l-.02.24q-.84.17-1.41-.27.75-.15 1.43.03M1257.8 597.2l11.75.24-13.59.27q.7-.64 1.84-.51M1326.32 597.92q-.15.08.41.16l-1.64.12q.21-.54 1.23-.28M1331.2 598.15l-2-.05q.62.01 1.07-.21.35-.11.93.26M1291.6 598.58q.15 1.72-3.74.38 1.42-.51 3.74-.38M1597.74 600.36l-.97.15q-.33-.59-.09-1.15a.45.44 38.9 0 1 .77-.08q.27.38.29 1.08M1676.18 599.71l.03.28q-.49.04-.76-.18zM1546.05 602.96q-.07.06-.07.26-.58.02-.96-.35.64-.13 1.03.09M630.74 604.55l-.63.41-.07-.17q.27-.25.7-.24M1652.04 605.38l-.84.05q.38-.13.84-.05M594.13 606.79l.09.95q-.22-.17-.26-.45zM1366.7 606.91q-.28.06-.46.2-1.07-.01-1.34.51l-.91-.55q1.4-.39 2.71-.16M663.21 607.42q.41.41-.22.59l-.12-.2zM787.1 608.96l-.29-.25q-.04-.67.22-1.26.29.64.07 1.51M1385.79 608.72q-.22.66-1.35.44l.1-.09q.32-.57 1.25-.35M625.8 609.83l.02.13q-.19.56-.58.81-.3-.7.56-.94M514.87 612.71l-.01-1.5zM1381.52 612.94l-.06.2q-.94.34-1.21 1.02-.19-.05-.63.01.73-1.18 1.9-1.23M1352.22 617.6l-1.27.31q-.15-.07-.24-.26 1.6-.52 1.51-.05M766.91 617.54l.37.24-1.05 1.47zM766.23 619.25q.02 2.05-.6 1.29zM123.78 619.86q-.12-.2-.07.29-.32-.07-.49-.04.11-.3.56-.25M135.91 625.47l.01-3.02zM1468.79 624.46q-1.15.36-1.79-.18l1.04-.18q.46.01.75.36M109.51 625.3q.09.57-.26.57-.41 0-.74-.4.75.11 1-.17M750.23 626.28q-.03.18-.46.46l.1-.53zM101.3 626.87l.72.13q-.83.41-1.02-.15zM756.26 626.84l.46.25-2.63.44q.71-.68 2.17-.69M615.33 627.3q-.61.48-2.3.07.42.05.76-.29.9-.2 1.54.22M80.49 627.96q.13 1.39-1.98 1.17l-.24-.27q1.65-.05 1.8-.89.23.08.42-.01M38.48 631.07q.28.36.32.68a.18.18 0 0 1-.36.06q-.07-.29.04-.74M286.14 631.79q-1.3 1.39-3.95 1.17l-.03-.26q2.38.1 3.32-.93zM767.64 632.1q-.41-.21.21.32-.36-.09-.84.25-.42-.49.63-.57M1347.47 632.47l-1 .45q-.08-.13-.18-.19.71-.54 1.18-.26M281.78 632.87l-.99.05zM720.71 633.2l-.67-.06q-.03-.17.04-.39zM280.22 633.09l-.01.19-.92.03-.01-.35q.29.16.94.13M430.09 634.72q.12.8-.26 1.01l-.08-.61q-.01-.49.34-.4M345.73 635.9q-.18.01-.22.18l-.73-.21q.6-.2.95.03M1336.39 637.73l.07.2-.59.53q-.1-.46.52-.73M266.98 641.22q-.2-.32-.1-1.01zM39.78 643.86l-.07.45-.75-.18zM1687.09 647.32q-3.06-1.08-4.22-3.14 2.1.39 4.22 3.14M216.73 645.79q-.31.34-.77.38-.27-.21-.66-.24zM1409.79 647.89l-2.08.01zM1688.61 648.13q-.08.14.14.3-.43.11-.75-.39.3-.25.61.09M1234.25 649.26q-.54-.2-.79-.69c.49-.22 1.02.13.79.69M1096.51 649.79q.02-.22-.27.17.12-.37.05-.72.12.11.22.55M1528.78 651.88l-.27.16q-.59-.04-.72-.41zM1542.29 652.13h-1.5zM1181.94 652.78q-.03.21.05.45-.42.25-.95.19zM680.91 654.06q-.16.44-1.11.47-.17-.46-.12-.83.08-.51.54-.46.47.06.69.82M1591.04 653.33l-.06.18-.94-.04q.43-.18 1-.14M1582.22 654.14l-.78.02q.4-.11.78-.02M646.08 654.87q-.12-.18-.11.38-.6.14-1.01.05.45-.44 1.12-.43M655.96 655.77q-.46-.28-.54-.13l.12-.26q.24.12.42.39M686.2 655.49l.05.12q-.5.26-.93.23.18-.29.88-.35M1566.97 655.45q.47.31-.75.76-.11-.21-.43-.31.66 0 1.18-.45M1326.77 655.95l-.09.38a.5.48 3.3 0 1-.42.36l-4.54.44q.01-.15-.46-.32 3.02.42 4.78-.88.24-.1.73.02M1149.36 656.74q-.36.72-2.61 1.45l-.06-.47q1.53-.22 2.02-1.06.45-.23.65.08M646.95 657.52l-.21.41q-.45-.46-.21.05-.27-.36.42-.46M216.47 658.81l-.01.35q-.41-.04-.74-.3zM228.95 672.14q-.07.03-.17.16l-.73-.25zM1576.86 675.46l.01-2.19zM1201.46 675.23l-.44.06-.82-.16q.63-.17 1.26.1M751.38 676.15q-2.47.57-5.06.29l-.03-.21q2.59-.7 5.09-.08M1113.79 676.83q.3.21.92.19l-2.41.41-.01-.37q.74-.32 1.5-.23M1345.21 676.85l-.66.01q.29-.09.66-.01M737.77 678.98q-.29.53-.77.71.09-.57.77-.71M1425.21 679.62q-.05.26 0 .52l-.48-.27q.15-.21.48-.25M737 679.69q-.36 1.03-1.34 1.3.16-.83 1.34-1.3M1319.22 682.86l-2.76.37q-.05-.24-.17-.36zM1279.79 687.35l.02.09q-2.62 1.05-4.43-.07zM1069.58 687.42q.19.84.7.56-.13.34-.46.27-.2-.05-.24-.83M264.14 688.16l-.18.11q-1.09-.03-1.16-.48zM1103.21 689.41q-.53.04-.93-.14.37-.36.93.14M263.04 690.86q-1.16.94-2.01.18l.93-.23q.54-.09 1.08.05M1094.03 690.87q-.47.34-1.09.29l.09-.29zM275.29 694.9l-.82.22q-.14-.04-.25-.14.5-.18 1.07-.08M328.78 697.06q.12.13.27.21-.46.2-1.01.06.36-.21.74-.27M1119.81 697.67q-1.45.28-2.78-.11zM279.53 699.45q-.62-.17-.59.03l.1-.43q.48.06.49.4M1108.92 705.31q.38.55.12 1.4-.3-.11-.55-.28-.31-.21-.28-.49.04-.43.71-.63M1416.48 706.2q.54.14.22.66.02.48-.33.59-.08-.65.11-1.25M1571.56 710.29l-.18.5-.88-.15q.57-.06 1.06-.35M1597.54 710.33q-.28-.05-.52.24-.2-.18-.56-.18zM1571.01 711.36q-.54.37-.36 1.45-.23-1.74.36-1.45M1108.94 711.77q-.03.88-.16 1.1l-.78-.09q-.11-.63-.33-.58zM614.12 716.54q.2.48-.85.44l.02-.16q.43-.33.83-.28M1642.93 718.04l-.04 1.17zM1533.13 722.5l.08.22q-.21.15-.47.19zM599.79 722.77l.07.19q-.32.36-.85.51zM596.32 724.51l-3.93.67c.33-1.75 3.16-2.14 3.93-.67M1435.62 728.65q1.29-.06 2.12.62-2.11.33-2.12-.62M1448.82 728.8q.3 0 .11.36l-5.89-.34zM574.28 729.87l-.76.34-.22-.23q.39-.17.98-.11M1461.75 730.76q-2.85.04-3.75-.36l.14-.17q1.31-.35 3.61.53M1137.62 732.52q-.15.35-.59.69l-.26-.27q.4-.29.85-.42M1220.45 733.88q-1.92.66-4.11.14 1.97-.43 4.11-.14M276.72 734.97l-.97-.09q.52-.06.97.09M1396.53 737.3l-.08.5q-.61.31-1.16.35.14-.43 0-.95.63-.2 1.24.1M1422.08 739.67l.29.15q-.38.32-.86.39zM1410.04 740.73q-.73.03-1.29-.59.98-.14 1.29.59M562.95 741.26l-1.24.53.07-.22q.46-.29 1.17-.31M557.04 746.86l-.52.44-.32.05q.14-.72.84-.49M1227.04 746.88l-1 .02zM1587.79 749.76l-.29.35q-1.09.48-2-.2zM1598.46 750.31q-.28.36-1.17.44l-.01-.2zM419.96 750.91l-2.7-.01.3-.11zM1372.16 752.54q-.32.53-1.17.68-.22-.24-.45-.3zM1365.53 755.3q.09.19.26.26-.28 1.4.41 2.15-.38.02-.67.23-.91-1.18 0-2.64M646.72 755.78v.42q-1.01.51-.77-.16zM630.48 756.88h-5.92zM1304.84 761.15l-.18 3.97a.3.3 0 0 1-.29.28h-.29a.32.31 1 0 1-.31-.31l-.08-4.08q.19-.33.55-.34.52-.02.6.48M1320.3 760.84l-.05.02q-.19.29-.54.31-.49-.23-1.17-.29zM1241.86 762.7v-1.24zM1295.13 763.5q-.2-.64-.43.22l-.24-1.01q.6-.32.67.79M625.27 762.85q.63.26 1.16.19l-3.88.39q1.35-.7 2.72-.58M1351.55 765.37q.14-.32-.32.04-.45-.17-.56-.03l.03-.33q.8-.13.85.32M1529.36 767.74q3.49 21.25 7.09 42.48 3.47 20.51 8.1 42.29 14.05 66.08 27.9 132.11a.5.5 0 0 1-.54.61l-.26-.02a.8.8 0 0 1-.67-.59q-22.61-107.37-29.46-139.34-3.62-16.9-6.56-34.97-2.38-14.61-5.87-35.07a.16.16 0 0 0-.31 0q-.88 5.51-.47 11.25c1.02 14.1 3.31 39.24 5.61 59.3q7.97 69.59 16.01 138.98a.42.42 0 0 1-.44.47l-.55-.04a.54.54 0 0 1-.51-.47q-7.1-61.57-16-138.99c-2.08-18.1-3.6-36.2-5.23-54.34q-.58-6.39-.29-11.81.31-5.92.89-11.81.86-.22 1.56-.04M1241.46 769.13q-.26.55.77.83l-.46.36q-.36-.23-.74-.27.26-.31.43-.92M726.05 770.05l-.21.09q-.28-.07-.86.25l-.52-.18zM1242.54 773.17q-1.2.12-2.1-.34l.09-.17q1.02-.04 2.01.51M1293.35 773.42l.34.12q-.21.2-.48.32-.18-.14-.26-.39zM423.32 789.97q-.49.74-1.45.59.48-.71 1.45-.59M444 793.97l-.1 1.31q-.11-.65.1-1.31M483.48 795.49q.04.56-.69 1.11-.32-.54.69-1.11M1187.38 797.65q.42.32.32.81-.09.43-.69.54-.59-.46-.76-1.09.42-.2 1.13-.26M399.68 798.64q.14-.41.6-.41.52 0 .45.52-.06.37-.42.58t-.58-.14q-.15-.23-.05-.55M538.21 801.64l-3.17-.04zM474.92 805.02l.04.17q-.34.52-1 .59.04-.47.96-.76M473.54 805.97q-.3.65-1.24.56.53-.43 1.24-.56M633.78 807.89q-.2.1-.32.35-.54-.09-.67-.46zM651.98 813.31l-.19.13-.61-.24q1.04-.38.8.11M667.77 815.13q-2.46.38-4.64-.01 1.51-1.47 4.64.01M670.24 814.88l-.46.63q-.07-.2 0-.49.2-.14.46-.14M1216.97 814.79q-.37.28-1.1.38.15-.2.13-.29.38-.16.97-.09M1203.71 823.16l-.96-.01zM1165.97 825.18l-4.95.14q2.55-2.25 4.95-.14M598.13 837.03q-.21-.08-.27-.01-.16-.16-.13-.48.07-.51.4.49M623.01 837.1q-.96.47-2.32.26l-4.16-.07v-.27zM643.76 837.04q-.44 1.14-1.98 1.14l.01-.3q1.52.07 1.47-.96-.3.19.5.12M552.89 843.04l-.04.96zM635.96 863.13q-.4.04-.75.23-.97-.36-2.25-.23zM597.75 871.73q-.62 3.68-4.03 5.47a.27.27 0 0 1-.38-.13l-.18-.39a.2.2 0 0 1 .11-.29q2.65-1.15 2.89-3.79.55-1.08 1.59-.87M538.71 912.1l-.23.2-1.61.02q.42.22-.17-.38z"/></g></svg>